<svg width="29" height="28" viewBox="0 0 29 28" fill="none" xmlns="http://www.w3.org/2000/svg">
<path d="M20.9114 15.6087C21.9682 15.6087 22.8982 15.0561 23.3773 14.2204L28.4218 5.47303C28.9432 4.58346 28.2668 3.47825 27.1959 3.47825H6.34136L5.01682 0.782593H0.409092V3.47825H3.22727L8.3 13.7082L6.39773 16.9969C5.36909 18.803 6.72182 21 8.86364 21H25.7727V18.3043H8.86364L10.4136 15.6087H20.9114ZM7.68 6.1739H24.8005L20.9114 12.913H11.0195L7.68 6.1739ZM8.86364 22.3478C7.31364 22.3478 6.05955 23.5609 6.05955 25.0435C6.05955 26.5261 7.31364 27.7391 8.86364 27.7391C10.4136 27.7391 11.6818 26.5261 11.6818 25.0435C11.6818 23.5609 10.4136 22.3478 8.86364 22.3478ZM22.9545 22.3478C21.4045 22.3478 20.1505 23.5609 20.1505 25.0435C20.1505 26.5261 21.4045 27.7391 22.9545 27.7391C24.5045 27.7391 25.7727 26.5261 25.7727 25.0435C25.7727 23.5609 24.5045 22.3478 22.9545 22.3478Z" fill="#FF1C1C"/>
</svg>
